<svg version="1.1" id="레이어_1" xmlns="http://www.w3.org/2000/svg" xmlns:xlink="http://www.w3.org/1999/xlink" x="0px"
	 y="0px" width="841.89px" height="595.28px" viewBox="0 0 841.89 595.28" enable-background="new 0 0 841.89 595.28"
	 xml:space="preserve">
<path fill="#040000" d="M421,278c-11.05,0-20,8.95-20,20s8.95,20,20,20s20-8.95,20-20S432.05,278,421,278z M421,284
	c3.311,0,6,2.69,6,6c0,3.32-2.689,6-6,6c-3.31,0-6-2.68-6-6C415,286.69,417.69,284,421,284z M421,312.4c-5.01,0-9.41-2.561-12-6.44
	c0.05-3.97,8.01-6.16,12-6.16s11.939,2.19,12,6.16C430.41,309.84,426.01,312.4,421,312.4z"/>
<path fill="none" d="M397,274h48v48h-48V274z"/>
</svg>
